<?xml version="1.0" encoding="utf-8"?>
<svg viewBox="14 429.29998779296875 372.70001220703125 386.800048828125" width="372.70001220703125" height="386.800048828125" xmlns="http://www.w3.org/2000/svg" xmlns:xlink="http://www.w3.org/1999/xlink"><clipPath id="SVGID_2_">
		<use style="overflow:visible;" xlink:href="#SVGID_1_"/>
	</clipPath><defs><path d="M 0 0 H 1096 V 780 H 0 V 0 Z" id="SVGID_1_"/></defs><g class="st1" style="clip-path: url('#SVGID_2_');" transform="matrix(1, 0, 0, 1, 1.1368683772161603e-13, 0)">
		<path class="st5" d="M325.7,671.7c-1.5-0.6-3-1.1-4.5-1.6c0.6-0.3,1.2-0.6,1.9-1c0.3-0.6,0.5-1.2,0.6-1.8c1.2-6.3-8-9.4-10.4-2.3&#10;&#9;&#9;&#9;c0.2,1.1,0.6,2,0.9,2.8c-3.9-1.2-7.7-2.1-11.3-2.8c-1.1-0.2-2.2-0.3-3.3-0.5c7.8,3.3,18.3,6.3,25.8,8.9c1.1,0.4,2.1,0.7,3,1.1&#10;&#9;&#9;&#9;c0.5,0.2,1,0.4,1.5,0.6c1.5,0.6,3.3,2.8,4.9,3.1c0.9,0.1,1.7-0.3,2.3-1.8c-2.6-1.1-5.4-2.3-8.4-3.4&#10;&#9;&#9;&#9;C327.7,672.5,326.7,672.1,325.7,671.7z" style="fill: rgb(204, 204, 204); opacity: 1;"/>
		<path class="st5" d="M282,626.4l0.4,0c-0.3-0.9,0.5-2.2-0.7-2.4l-0.4,0C281.7,624.9,280.9,626.2,282,626.4z" style="fill: rgb(204, 204, 204); opacity: 1;"/>
		<path class="st5" d="M285,621.1c-0.7-0.1-1.4,0-2,0.2c0.1,0.2,0.2,0.5,0.5,0.9C284.2,622.1,284.7,621.7,285,621.1z" style="fill: rgb(204, 204, 204); opacity: 1;"/>
		<path class="st5" d="M288.6,632.9c0.3,0.1,0.7,0.2,1,0.3l0.1,0c0.4-0.2,0.9-0.5,1.4-0.8c0.2-0.7,0.3-1.4,0.4-2.1&#10;&#9;&#9;&#9;c-1.2-1.9-4.4-2.4-6.9-3.3c-0.3,2.2,1.2,2.9-0.8,4.3c0.3,0,0.6,0,0.9,0.1c1,0.2,1.8,0.6,2.6,0.9c0.3,0.1,0.6,0.3,0.9,0.4&#10;&#9;&#9;&#9;c-0.1,0.1-0.2,0.1-0.3,0.2C288.1,632.9,288.4,632.9,288.6,632.9z" style="fill: rgb(204, 204, 204); opacity: 1;"/>
		<path class="st5" d="M316.9,591.8c0.2,0.5,0.5,1,0.7,1.6c2.4-0.4,4.7-0.7,7.1-1.1c-0.4-0.1-0.9-0.2-1.3-0.3&#10;&#9;&#9;&#9;C321.4,591.6,319.2,591.6,316.9,591.8z" style="fill: rgb(204, 204, 204); opacity: 1;"/>
		<path class="st5" d="M312.3,637.9c-2.8-0.2-5.7,0.2-8.1,1.7l19.2,3.3c-2.1-2.1-5-3.7-8.2-4.5L312.3,637.9z" style="fill: rgb(204, 204, 204); opacity: 1;"/>
		<path class="st5" d="M282.4,633.7c2-0.4,3.7,0.3,5.6,0l-6.3-1.1C281.9,633,282.1,633.3,282.4,633.7z" style="fill: rgb(204, 204, 204); opacity: 1;"/>
		<path class="st5" d="M363.5,646.7l-28.9-5l-3.1-0.5l-2.8-0.5c-1.1,0.9-2.4,1.8-3.9,2.4l6.1,1.1l3.1,0.5l41.8,7.2l-0.1,0.3&#10;&#9;&#9;&#9;c1.5,0.7,2.9,1.3,4.1,1.5c0.3,0.1,0.6,0.1,0.9,0.1c0.1,0,0.2,0.1,0.2,0.1c0,0,0.1-0.1,0.1-0.1c0.6-0.1,1.1-0.3,1.4-0.7&#10;&#9;&#9;&#9;c0.2-0.2,0.3-0.4,0.4-0.7l-0.4,0.2c0.4-0.3,0.8-0.6,1.2-0.9l0.1-0.1c0,0,0-0.1,0-0.1c0,0.1,0,0.1,0,0.2c0.1,0.4,0.2,0.8,0.5,1.2&#10;&#9;&#9;&#9;l0.5-0.2c1-0.6,1.6-1.2,2-2l-3-0.5l-2.3-0.4c-0.5,0.2-1,0.5-1.4,0.8c-0.1,0.1-0.1,0.1-0.2,0.2c-0.4-0.1-0.8-0.3-1.2-0.4&#10;&#9;&#9;&#9;c0-0.1,0.1-0.2,0.1-0.2c0.1-0.2,0.3-0.5,0.4-0.7l-5.2-0.9c-0.5-0.2-1.1-0.4-1.6-0.6c-0.4,0-0.7,0.1-1.1,0.1c-0.9,0-2-0.1-3.1-0.2&#10;&#9;&#9;&#9;c-0.2,0-0.5-0.1-0.8-0.2c0.7,0.1,1.3,0.1,1.9,0.1c0.4,0,0.8,0,1.1-0.1c-1.8-0.6-3.6-1.2-5.5-1.7c0-0.1-0.1-0.2-0.1-0.3&#10;&#9;&#9;&#9;c-0.6-0.2-1.2-0.3-1.9-0.5c0.1,0.1,0.1,0.1,0.2,0.2c-0.1,0-0.1,0-0.2-0.1C363,645.8,363.2,646.2,363.5,646.7z M373.2,650.4&#10;&#9;&#9;&#9;c-0.8-0.4-1.6-0.7-2.4-1C371.6,649.7,372.4,650.1,373.2,650.4z M364.3,647L364.3,647C364.3,647,364.3,647,364.3,647&#10;&#9;&#9;&#9;C364.3,647,364.3,647,364.3,647z" style="fill: rgb(204, 204, 204); opacity: 1;"/>
		<path class="st5" d="M323.3,604.4c0.4,0.6,0.8,1.3,1.2,1.8c1.1,0.3,2.2,0.5,3.5,0.8c0,0,0,0,0,0c0.2,0,0.4,0.1,0.6,0.1&#10;&#9;&#9;&#9;c0.2,0,0.4,0.1,0.7,0.1c0.2,0,0.4,0.1,0.6,0.1c0,0,0,0,0,0c1.8,0.3,3.9,0.6,5.9,0.9c1.1,0.2,2.1,0.3,3.1,0.4&#10;&#9;&#9;&#9;c4.4,0.4,8.3,0.1,9.9-2.5c-3.1-0.5-6.2-0.9-9.2-1.3c-1.1-0.1-2.1-0.2-3.2-0.3c-2.9-0.3-5.9-0.4-8.8-0.5c0,0.1,0,0.2,0,0.3&#10;&#9;&#9;&#9;C326.3,604.4,324.8,604.4,323.3,604.4z" style="fill: rgb(204, 204, 204); opacity: 1;"/>
		<path class="st5" d="M341.6,577.4c1.1-0.3,2.3-0.5,3.4-0.8c3.8-1,7.3-2.1,10.2-4c-3.4,0.6-6.7,1.3-9.9,2.2c-1.1,0.3-2.3,0.6-3.4,1&#10;&#9;&#9;&#9;c-4.6,1.4-9,3-13.3,4.7C332.7,579.2,337.2,578.4,341.6,577.4z" style="fill: rgb(204, 204, 204); opacity: 1;"/>
		<path class="st5" d="M295.8,581.8c-0.1,0.9-0.1,1.7-0.2,2.6l0.1,0c0.4,0.1,0.7,0.3,1,0.5c0.3,0.2,0.5,0.4,1,0.5c0.2,0,0.4,0,0.6,0&#10;&#9;&#9;&#9;c4.8-0.1,9.3-0.8,13.6-1.8c-1-2.6-1.8-5.2-2.6-7.6C303.9,576.9,298.6,577.8,295.8,581.8z" style="fill: rgb(204, 204, 204); opacity: 1;"/>
		<path class="st5" d="M351.6,581.4c0,0.6-0.1,1.2-0.1,1.7c0.6,0,1.2,0.1,1.8,0.1c0-0.6,0.1-1.2,0.1-1.7&#10;&#9;&#9;&#9;C352.8,581.5,352.2,581.5,351.6,581.4z" style="fill: rgb(204, 204, 204); opacity: 1;"/>
		<path class="st5" d="M326.6,628.7c-1.4-1.9-3.2-2.8-5.3-3.2c-1.6-0.3-3.3-0.2-5.1-0.1c1.2,1.7,2.9,2.3,4.7,2.6&#10;&#9;&#9;&#9;c0.9,0.2,1.9,0.2,2.9,0.3C324.7,628.5,325.7,628.5,326.6,628.7z" style="fill: rgb(204, 204, 204); opacity: 1;"/>
		<path class="st5" d="M300.1,597c-0.6,0.2-1.1,0.5-1.7,0.7c-0.1,0.9,0.3,1.3,0.9,1.4c1.1,0.2,2.7-0.7,2-1.6&#10;&#9;&#9;&#9;c-0.3,0.1-0.5,0.2-0.7,0.1C300.4,597.5,300.2,597.3,300.1,597z" style="fill: rgb(204, 204, 204); opacity: 1;"/>
		<path class="st5" d="M239.6,495.6c-0.2-0.5-0.5-1.1-0.7-1.6c-2.3-0.3-1.5,2.7-0.3,2.9c0.2,0,0.4,0,0.6-0.1&#10;&#9;&#9;&#9;C239,496.2,238.9,495.7,239.6,495.6z" style="fill: rgb(204, 204, 204); opacity: 1;"/>
		<path class="st5" d="M323.6,500c-0.2-0.5-0.5-1.1-0.7-1.6c-0.6,0.2-1.1,0.5-1.7,0.7c0.2,0.5,0.5,1.1,0.7,1.6&#10;&#9;&#9;&#9;C322.5,500.4,323.1,500.2,323.6,500z" style="fill: rgb(204, 204, 204); opacity: 1;"/>
		<path class="st5" d="M283,617.6l-0.3,0c1,1.7-1.8,1.9-1.5,3.4c0.6-0.2,1.3-0.2,2-0.2C283.9,619.6,283.8,617.7,283,617.6z" style="fill: rgb(204, 204, 204); opacity: 1;"/>
		<path class="st5" d="M306.6,598.8c0,0.3,0.5,0.7,1.4,0.9c0.4,0.1,0.9,0.1,1.5,0c-0.8-1-1.5-1.4-2-1.4&#10;&#9;&#9;&#9;C306.8,598.2,306.5,598.5,306.6,598.8z" style="fill: rgb(204, 204, 204); opacity: 1;"/>
		<path class="st5" d="M333.7,478.6c0.3,0,1.3-0.5,2.1-1c0.7-0.6,1.2-1.2,0.2-1.3c-0.2,0-0.4,0-0.6,0l-0.2,0.9&#10;&#9;&#9;&#9;C333.7,478.1,333.4,478.5,333.7,478.6z" style="fill: rgb(204, 204, 204); opacity: 1;"/>
		<path class="st5" d="M299,486.8c-0.7,1.2-1.7,1.9-2.5,3.1l0.4,0.1C298.7,490.3,300.7,487.3,299,486.8z" style="fill: rgb(204, 204, 204); opacity: 1;"/>
		<path class="st5" d="M295.4,492c0.2-0.7,0-1.5-0.6-1.6l-0.2,0c-0.1,0.5-0.3,0.9-0.8,0.8l-0.3-0.1c-0.1,0.6-0.2,1.1-0.3,1.7&#10;&#9;&#9;&#9;c0.3,0.2,0.5,0.4,0.8,0.4C294.6,493.4,295.2,492.7,295.4,492z" style="fill: rgb(204, 204, 204); opacity: 1;"/>
		<path class="st5" d="M371,592.2c-1-0.2-1-1.1-2.1-1.3l-0.4,0c-0.2,0.9-0.3,1.7-0.5,2.6c0.6,0.1,1.2,0.2,1.8,0.3&#10;&#9;&#9;&#9;C369.9,592.9,370.6,592.9,371,592.2z" style="fill: rgb(204, 204, 204); opacity: 1;"/>
		<path class="st5" d="M272.8,576.2l-0.1,0c-1.2-0.2-2,0.2-2.5,0.8c-2.9-0.2-3.6,4-0.9,4.5c0.5-1.6,2.6-1.4,2.1-4.1&#10;&#9;&#9;&#9;C272,577.2,272.5,576.8,272.8,576.2z" style="fill: rgb(204, 204, 204); opacity: 1;"/>
		<path class="st5" d="M322.7,605.9c-0.4-0.6-0.8-1.2-1.2-1.8c-1.3,0-2.5,0.1-3.8,0.2C319,604.9,320.7,605.4,322.7,605.9z" style="fill: rgb(204, 204, 204); opacity: 1;"/>
		<path d="M 297.70001220703125 664.2000122070312 L 297.5 664.2000122070312 L 297.70001220703125 664.2000122070312 Z" class="st5" style="fill: rgb(204, 204, 204); opacity: 1;"/>
		<path class="st5" d="M329.4,483.1c1,0.1,1.4-0.7,2.5-0.5l0.4,0.1c0.1-1.3,0.9-3.1-0.2-3.6C332.6,481.9,327.4,482.1,329.4,483.1z" style="fill: rgb(204, 204, 204); opacity: 1;"/>
		<path class="st5" d="M325.7,487.8c1.1-1.4,2.6-2.1,3.5-3.8c-0.2-0.1-0.4-0.2-0.6-0.2C326.3,483.4,324.6,487.6,325.7,487.8z" style="fill: rgb(204, 204, 204); opacity: 1;"/>
		<path class="st5" d="M361.9,538.3L361.9,538.3c0,0-0.7,0.2-1.4,0.3c-0.7,0.2-1.4,0.3-1.4,0.3c0,0,0.2,0,0.6-0.1&#10;&#9;&#9;&#9;C361.4,538.5,361.9,538.3,361.9,538.3z" style="fill: rgb(204, 204, 204); opacity: 1;"/>
		<path class="st5" d="M352.6,542.1c1.1-0.2,2.2-0.6,3-1.3l-0.2,0C354.1,540.6,350.5,541.4,352.6,542.1z" style="fill: rgb(204, 204, 204); opacity: 1;"/>
		<path class="st5" d="M273.8,688.4c1-0.8,2.1-0.2,3.2-0.9c-0.4-2-1.6-3.3-3-4.3c-0.5-1.5-1.1-2.4-2.1-2.6c-0.3-0.1-0.6,0-1,0.1&#10;&#9;&#9;&#9;c0.1,0.4,0.3,0.7,0.4,1.1c-1.5-0.7-3-1.2-4.1-2c-0.5-0.3-1-0.7-1.5-1.1c-0.4-0.6-0.9-1.2-1.3-1.8c-0.9-1-1-1.7-0.8-2.3&#10;&#9;&#9;&#9;c0-0.1,0-0.2,0.1-0.3c1,0.3,1.9,1,2.8,1.6c1.1,0.8,2.2,1.5,3.5,1.8c0.5,0.1,0.9,0.1,1.4,0c-3.2-6.7-7.8-12.3-1.6-16.5&#10;&#9;&#9;&#9;c0.5,0,1,0,1.4,0c0.5,0.9,1.1,1.8,1.8,2.7c2.8,3.6,6.6,6,9.9,5.1c2.3,3.7,4.3,8.3,7.1,12.4c0.3,0.4,0.6,0.9,1,1.3&#10;&#9;&#9;&#9;c0.4-3,1.1-5.9,1.6-8.8c-2.9-1.1-4.5-3.9-6.3-7c0.2-0.2,0.4-0.4,0.5-0.5c0.7-0.8,1.3-1.7,1.8-2.8c0.7-1.3,1.1-2.8,1.4-4.4&#10;&#9;&#9;&#9;c0.8-4.4,0.2-9.3-2.3-12.7c-4.1-5.8-11.6-3.5-15.8,0.6c-0.1-0.3-0.2-0.5-0.2-0.8c0.8-1.9,4.9-6.1,1.6-7.3c0.2,1-0.4,1.6-0.9,2.3&#10;&#9;&#9;&#9;c-1.5-1.1-5.5-3.6-2.6-5.6c0.2,0,0.3,0,0.5,0c1,1.2,1.2,0.7,2.1,0.5c1.2,0.6,2.2,1.4,3.5,1.7c0.1-1,0.6-1.9,1-2.7&#10;&#9;&#9;&#9;c0.5-0.9,1-1.8,1-2.9c0-0.3,0-0.6-0.1-0.9c-0.6,0.2-0.9,0.4-1.1,0.7c-0.4,0.6-0.2,1.3-0.6,1.9c-0.7-0.8-1.4-1.6-2.1-2.4l-0.1-0.1&#10;&#9;&#9;&#9;c1.3-0.2,2.5-0.5,3.6-1c-0.8-0.1-1.7-0.3-2.5-0.4c-1-0.2-1.9-0.3-2.8-0.4c-0.4-0.4-0.8-0.9-1.2-1.3c4.5,1,9.5,2.2,11.7,1.4&#10;&#9;&#9;&#9;c0.7-6.2-12.7-3.1-13.3-8.5c0,0,0.1-0.1,0.1-0.1c0.1,0,0.1,0,0.2,0l0.3,0c-0.1-0.1-0.2-0.2-0.2-0.3c2.5-1.6,7.7,0.4,10.1-1.4&#10;&#9;&#9;&#9;c0.5-4.2-2.4-6.1-6-7.5c0.6-0.2,1.2-0.4,1.8-0.7c2.6,1.8,5.4,3.1,8.3,4.3c0.6,0.9,1.3,1.7,1.5,2.6c0.9-0.4,1.8-0.4,2.7-0.7&#10;&#9;&#9;&#9;c2.4,1.1,4.8,2.2,7.1,3.7c0.9-0.1,1.9,0,2.8,0.2c2.1,0.4,4.2,1.1,6.2,1.9c2,0.8,4,1.5,5.8,1.8c1.4,0.2,2.7,0.2,3.8-0.3&#10;&#9;&#9;&#9;c-0.6,0.2-1.1,0.2-1.6,0.1c-1.9-0.3-2.9-2.3-4.8-3.1c-5.4-2.4-12.5-2.5-17.3-6.1l0.2-0.4c-0.6-1.8-1.7-3.4-3.2-3.6&#10;&#9;&#9;&#9;c-0.6-0.1-1.3,0-2,0.4c-0.5-0.1-0.9-0.2-1.4-0.4c-1-0.9-2.3-1.7-3.6-2.3c-1-1.8-2.7-2-4.2-2.7c0.2,0.4,0.5,0.7,0.7,1&#10;&#9;&#9;&#9;c-2.4-2.1-4.8-3.6-7-4.2c-0.4-0.5-0.8-1.1-1.1-1.7c0.1-0.2,0.2-0.3,0.3-0.5c5-2.4,9,10.1,14.2,3.7c-1.6-1.6-3.1-2.9-4.4-4&#10;&#9;&#9;&#9;c4.9-0.9,9.1-0.1,13.4,0.6c-0.7-2.2,3.9-2.5,3.9-4.5c-0.6-0.1-1.2-0.3-1.8-0.5c7.1-1.1,14.3-2.1,21.4-3.3c-0.2-0.5-0.5-1-0.7-1.6&#10;&#9;&#9;&#9;c-5,0.4-10.8,1.8-16.8,2.4c-3.1,0.3-6.6,0.1-9.9,0.5c-6.2-2.3-12.2-5.4-18.3-7.9c2-0.1,3.7-0.5,4.1-1.4c-3-0.4-5.6-0.3-8-0.1&#10;&#9;&#9;&#9;c-3-1.1-6-2-9.2-2.6c0.7-2,1.6-3.7,2.6-5.3c0,0,0,0,0,0c0,0,0,0,0,0c5.6-9.2,14.7-13.4,22.4-19.7l5.4,0.9c0.9-0.5,1.7-1.1,2.5-1.8&#10;&#9;&#9;&#9;c0,0.5,0.2,1,0.9,1.1c0.3-0.2,0.6-0.5,0.9-0.7c0.1-0.7,0.1-1.4,0-2c1-0.9,2.1-1.8,3.4-2.4c4.9-1.1,9.7-2.7,14.6-4.4&#10;&#9;&#9;&#9;c2-0.7,4-1.4,6-2c4.3-1.4,8.5-2.8,12.8-3.8c4.2-1,9.8-0.2,12.1-5c-9.8,1.3-16.8,6.4-28,5.8c-0.9,0.7-1.9,1.4-2.9,1.9&#10;&#9;&#9;&#9;c-1.6,0.9-3.3,1.6-5.2,2.2c-7.1,2.3-15.8,3.1-23.5,5.4c-1.1-5.2-10.3-4.7-15.2-5.7c1.7-2.5,5.9-4,6.9-6.7&#10;&#9;&#9;&#9;c-0.6-2.2-2.2-3.3-3.3-4.4c0.3,0,0.5,0,0.8,0.1c2.4-3,6.5-5.5,8.9-7.3c4.1-3.1,7.4-9.8,10.7-12.3c11.4-8.9,25-16.7,30.7-24.9&#10;&#9;&#9;&#9;c-16.3,10.7-30.8,24-47.3,34.4c-1,0.9-1.8,0.9-2.4,0.8c-0.1,0-0.3-0.1-0.4-0.1c3.1-3.3,6.2-6.7,9.5-10.6c-0.9-1-0.2-2-0.9-3&#10;&#9;&#9;&#9;c-2.1,0.4-3.5,1.5-4.5,2.9c-1.5,0.4-2.5,1.1-2.7,2c-0.1,0.3,0,0.6,0.1,1c0.4-0.1,0.8-0.3,1.1-0.4c-0.7,1.4-1.3,2.8-2.1,3.9&#10;&#9;&#9;&#9;c-1.4,1.9-3.3,3.8-5.3,6c-0.2-0.3-0.4-0.5-0.7-0.8c-0.1-0.4,0-0.8,0-1.2c0.2-1.2,1-2.3,1.9-3.3c0.8-1,1.6-2.1,1.9-3.3&#10;&#9;&#9;&#9;c0.1-0.4,0.1-0.9,0-1.4c-6.4,2.8-11.9,6.7-16.1,2.8c1.2-0.3,2.3-0.7,3.5-1.3c1.3-0.6,2.5-1.3,3.6-2.1c4-2.9-14.8-16.4-18.3-14.1&#10;&#9;&#9;&#9;c-0.1,0.1-0.2,0.1-0.2,0.2c-0.1-0.4-0.3-0.8-0.6-1.2c-1.1,0.5-2.2,0.9-3.4,1.4c0.4,1,0.9,1.8,1.5,2.3c-1.9,3.2-0.9,7.1,1.4,10.2&#10;&#9;&#9;&#9;c-1.3,0.6-2.7,1.1-4.4,1.4c-2-0.8-6.4-4.7-7.7-1.5c0.6-0.1,1,0,1.5,0.2c-0.2,0-0.4-0.1-0.7-0.1c-0.4,2.3-1.8,1.5-0.7,3.4&#10;&#9;&#9;&#9;c-1.1,0.9-2.4,1.4-3.6-0.1c0-0.4,0-0.7,0-1c0.3-1.7,1.8-3,2.3-4.7c-1-0.1-1.9-0.5-2.8-1c-0.1,0-0.1-0.1-0.2-0.1&#10;&#9;&#9;&#9;c0.3-1.8,0.4-3.4-0.1-4.4c-2.8-0.3-3.8,1.9-4.4,4.5c-0.1-0.2-0.1-0.4-0.2-0.6c-0.2,0.8-0.3,1.6-0.5,2.4c-0.2,0.9-0.3,1.8-0.4,2.7&#10;&#9;&#9;&#9;c-1.2,1.1-2.5,2.2-3.7,3.2c-1.7-2.4,0.4-7.4-1.5-9.6c-5.4-0.6-7.2,3.7-8.8,8.2l0,0c-0.8,0.5-1.6,0.8-2.4,0.7l-0.2,0&#10;&#9;&#9;&#9;c-0.1-0.1-0.2-0.2-0.2-0.2c-0.2-0.5-0.5-1-0.7-1.6c0-1.8,1.9-3.8,1.5-5.6c0.3-0.5,0.6-1.2,0.5-1.9c-2.1,1-2.3,2.7-3.1,4.1&#10;&#9;&#9;&#9;c0.4-0.2,0.7-0.5,1.1-0.7c-0.4,0.5-0.8,0.9-1.2,1.4c-0.2-0.4-0.3-0.8-0.5-1.2c1.9-2.5,3.2-5.2,4.5-7.9c0.9-0.6,1.8-1.3,2.7-1.5&#10;&#9;&#9;&#9;c-0.4-0.8-0.4-1.7-0.8-2.5c1.1-2.3,2.4-4.6,3.9-6.7c-0.1-0.9,0-1.8,0.2-2.7c0.4-2,1.2-4,2-5.9c0.8-2,1.6-3.8,1.9-5.6&#10;&#9;&#9;&#9;c0.2-1.3,0.2-2.5-0.3-3.6c0.2,0.6,0.2,1.1,0.1,1.5c-0.3,1.8-2.4,2.8-3.3,4.6c-2.5,5.2-2.7,12-6.4,16.5l-0.4-0.2&#10;&#9;&#9;&#9;c-1.9,0.5-3.5,1.6-3.8,3.1c-0.1,0.6,0,1.2,0.4,1.9c-0.1,0.5-0.2,0.9-0.4,1.3c-0.5,0.5-1,1.1-1.4,1.7c-0.1,0-0.1-0.1-0.2-0.1&#10;&#9;&#9;&#9;c-4.6,4.2-6.4,6.8-9.9,11.2c-0.3-1.2-0.5-2.5-0.8-3.7c0.5-0.6,1-1.2,1.6-1.7c-1.8-5.8-0.9-10.5,0-15.2c-2.3,0.6-2.6-3.8-4.7-3.7&#10;&#9;&#9;&#9;c-0.1,0.6-0.3,1.1-0.5,1.7c-1.2-6.8-2.3-13.7-3.4-20.5c-0.5,0.2-1.1,0.4-1.6,0.7c0.5,4.8,1.9,10.3,2.5,16c0.3,3,0.2,6.3,0.6,9.4&#10;&#9;&#9;&#9;c-4.1,10-10.4,19.2-12.6,30c-0.1,0-0.3-0.1-0.4-0.1c0.1-0.5,0.2-1,0.3-1.4c-0.5,0.3-0.9,0.7-1.2,1.1c-6.8-2.6-11.3-6.7-15.2-11.2&#10;&#9;&#9;&#9;c-0.7-1.5-1.4-2.9-2.1-4.3c-0.9-1.9-1.8-3.7-2.6-5.3c-0.7-0.2-1.4-0.4-2-0.5c-0.5-0.1-1-0.1-1.5-0.1c-0.5-0.6-1-1.3-1.6-1.9l1-5.2&#10;&#9;&#9;&#9;c-0.5-0.9-1.2-1.6-1.9-2.4c0.6,0,1-0.2,1.1-0.9c-0.2-0.3-0.5-0.6-0.7-0.8c-0.8-0.1-1.4-0.1-2.1,0c-1-1-1.9-2-2.5-3.2&#10;&#9;&#9;&#9;c-1.2-4.6-2.9-9.3-4.6-14c-0.7-1.9-1.4-3.8-2.1-5.8c-1.5-4.1-2.9-8.1-3.9-12.2c-1-4-0.2-9.4-5.2-11.5c1.4,9.3,6.7,16.1,6.1,26.7&#10;&#9;&#9;&#9;c0.8,0.9,1.4,1.8,2,2.8c0.9,1.5,1.7,3.2,2.3,5c2.9,8.1,3.5,18.5,7.3,26.8c-1.5,3.2-1.5,8.1-2.2,11.1c-2.6-1.6-4.1-5.7-7-6.6&#10;&#9;&#9;&#9;c-3.7,0.9-4.7,4.5-7,4.1c-0.4-0.1-0.8-0.3-1.4-0.6c-0.6-0.6-1.2-1.1-1.7-1.6c0-0.2,0-0.4,0.1-0.5c-3.2-2.3-5.8-6.2-7.7-8.5&#10;&#9;&#9;&#9;c-3.3-3.9-10.3-7.1-12.9-10.2c-9.3-10.9-17.5-23.9-26-29.3c10.4,14.4,23,27.3,33.5,41.7c-0.8-0.6-1.6-1.3-2.4-1.9&#10;&#9;&#9;&#9;c-1,0.8-2.1,0.2-3.2,0.9c0.4,2,1.6,3.3,3,4.3c0.5,1.5,1.1,2.4,2.1,2.6c0.3,0.1,0.6,0,1-0.1c-0.1-0.4-0.3-0.7-0.4-1.1&#10;&#9;&#9;&#9;c1.1,0.5,2.2,0.9,3.1,1.4c0,0.1,0,0.1-0.1,0.2c-0.1,0.2-0.1,0.4-0.1,0.6c-0.1,0.5-0.1,1.2,0.3,2c2.3,0.1,3.9,0.7,5.4,1.4&#10;&#9;&#9;&#9;c0.6,0.5,1.2,1,1.8,1.5c-0.3,0.2-0.6,0.4-0.9,0.6c-0.4,0-0.9,0-1.3,0c-1.3-0.2-2.4-1-3.5-1.8c-1.1-0.8-2.2-1.5-3.5-1.8&#10;&#9;&#9;&#9;c-0.5-0.1-0.9-0.1-1.4,0c3.2,6.7,7.8,12.3,1.6,16.5c-1.3,0.1-7.9,9.6-5.9,7.3c0.9,1,1.6,2.2,2.3,3.5c0,1.1,0.5,2.2,1.2,3.1&#10;&#9;&#9;&#9;c0.1,0.4,0.2,0.8,0.3,1.3c-0.8,1.9-4.9,6.1-1.6,7.3c-0.2-1,0.4-1.6,0.9-2.3c1.5,1.1,5.5,3.6,2.6,5.6c-0.4,0-0.7,0-1.1,0&#10;&#9;&#9;&#9;c-1.8-0.3-3.2-1.7-4.9-2.2c-0.1,1-0.6,1.9-1,2.7c-0.1,0.1-0.1,0.2-0.2,0.3c-4-0.9-8-1.8-10-1c-0.1,0.7,0,1.3,0.3,1.8&#10;&#9;&#9;&#9;c-0.4,0-0.8,0-1.2,0.1l1.4,0.2c1.5,2.1,6,2.3,9.2,3.2c0,0-0.1,0-0.1,0c0.2,0,0.3,0.1,0.5,0.1c1.7,0.6,3.1,1.4,3.2,3&#10;&#9;&#9;&#9;c-1.7,1.6-5.1,0.8-7.8,0.9c-0.1-0.1-0.2-0.2-0.5-0.2l-0.4,0c0,0.1,0.1,0.2,0.1,0.4c-0.7,0.1-1.4,0.3-1.9,0.7&#10;&#9;&#9;&#9;c-0.2,1.3,0,2.4,0.4,3.3c-0.5,0.2-0.8,0.5-1.1,0.9c0.5,0,1.1,0,1.6-0.1c0.1,0.1,0.2,0.3,0.3,0.4c0,0,0,0,0,0&#10;&#9;&#9;&#9;c-0.8,1.2-0.6,3.1,0.2,3.2l0.3,0c-0.6-1,0.2-1.5,0.8-2.1c1.6,1.2,3.8,2,6.1,2.7l0,0c0.6,0.7,0.9,1.5,0.7,2.3l0,0.2&#10;&#9;&#9;&#9;c-2.4,2.5-5.3-1-7.8-0.5c-0.3-0.2-0.7-0.3-1.1-0.4c-0.6-0.8-1.3-1.7-1.5-2.5c-0.9,0.4-1.8,0.4-2.7,0.7c-2.4-1.1-4.8-2.2-7.1-3.7&#10;&#9;&#9;&#9;c-0.9,0.1-1.9,0-2.8-0.2c-2.1-0.4-4.2-1.1-6.2-1.9c-2-0.8-4-1.5-5.8-1.8c-1.4-0.2-2.7-0.2-3.8,0.3c0.6-0.2,1.1-0.2,1.6-0.1&#10;&#9;&#9;&#9;c1.9,0.3,2.9,2.3,4.8,3.1c5.4,2.4,12.5,2.5,17.3,6.1l-0.2,0.4c0.6,1.8,1.7,3.4,3.2,3.6c0,0,0,0,0,0c-0.2,0.2-0.3,0.3-0.5,0.5&#10;&#9;&#9;&#9;c5,5,7.9,6.6,13.8,11c-0.2,0-0.4,0.1-0.6,0.1c-0.6-0.5-1.2-1-1.8-1.5c-6,1.7-11,0.8-16,0c0.7,2.2-3.9,2.5-3.9,4.5&#10;&#9;&#9;&#9;c0.6,0.1,1.2,0.3,1.8,0.5c-7.1,1.1-14.3,2.1-21.4,3.3c0.2,0.5,0.5,1,0.7,1.6c5-0.4,10.8-1.8,16.8-2.4c3.1-0.3,6.6-0.1,9.9-0.5&#10;&#9;&#9;&#9;c10.5,3.9,20.1,10,31.4,12.1c-0.1,0.1-0.1,0.3-0.2,0.4c-2.7-0.4-5.1-0.9-6.9-1.2c1.6,2.1,3.9,2.4,6.2,3.1c-0.7,1.4-1.4,2.7-2.2,4&#10;&#9;&#9;&#9;c-1.9,1.2-4,2.2-5.7,3c1,0.2,2.3,0.1,3.6-0.2c-0.2,0.2-0.4,0.5-0.6,0.7c-3.5,1.5-7.5,3.2-11.4,4.8c-1.7,0.8-3.4,1.5-5.1,2.2&#10;&#9;&#9;&#9;c-2,0.9-3.9,1.7-5.5,2.5c-0.3,0.7-0.4,1.3-0.5,1.9c-0.3,1.3-0.1,2.4,0.3,3.3l-2.3-0.4c-0.9,0.5-1.7,1.1-2.5,1.8&#10;&#9;&#9;&#9;c0-0.5-0.2-1-0.9-1.1c-0.3,0.2-0.6,0.5-0.9,0.7c-0.1,0.7-0.1,1.4,0,2c-1,0.9-2.1,1.8-3.4,2.4c-4.9,1.1-9.7,2.7-14.6,4.4&#10;&#9;&#9;&#9;c-2,0.7-4,1.4-6,2c-4.3,1.4-8.5,2.8-12.8,3.8c-4.2,1-9.8,0.2-12.1,5c9.8-1.3,16.8-6.4,28-5.8c0.9-0.7,1.9-1.4,2.9-1.9&#10;&#9;&#9;&#9;c1.6-0.9,3.3-1.6,5.2-2.2c8.3-2.7,18.8-3.4,27.4-6.7c2.4,0.4,4.9,0.5,6.8,0.9c-1.7,2.5-5.9,4-6.9,6.7c0.9,3.5,4.7,4.5,4.3,6.7&#10;&#9;&#9;&#9;c-0.1,0.4-0.3,0.8-0.6,1.3c-2,1.9-3,3.1-3.1,3.8c-0.2,1.2,2,0.6,4.9-1.4c-1.8,2-3.6,4-5.5,6c-0.7,0.5-1.4,1-1.9,1.4&#10;&#9;&#9;&#9;c-4.1,3.1-7.4,9.8-10.7,12.3c-11.4,8.9-25,16.7-30.7,24.9c13-8.5,24.8-18.6,37.4-27.7c2-0.4,3.3-1.5,4.2-2.8&#10;&#9;&#9;&#9;c1.5-0.4,2.4-1,2.7-1.9c1-0.7,2-1.3,3-2c0.1-0.1,0.1-0.1,0.2-0.2c0,0.1,0,0.2-0.1,0.2c-0.1,0.4-0.1,0.9,0,1.4&#10;&#9;&#9;&#9;c1.4-0.6,2.8-1.3,4.1-1.9c0.4,0,0.9-0.1,1.4-0.3c0-0.1,0-0.3,0-0.4c4.6-2.1,8.5-3.1,11.7,1.1c0.1,1.2,15.8,6.4,9.6,4.7&#10;&#9;&#9;&#9;c-0.1,0-0.3-0.1-0.4-0.1c1.1-0.7,2.4-1.3,3.8-1.9c0.6,0.9,1.6,1.4,2.7,1.6c1.2,0.2,2.4,0,3.5-0.6c1.8,1,3.6,1.6,4.4-0.3&#10;&#9;&#9;&#9;c-1,0.2-1.7-0.3-2.4-0.9c0.6-0.8,1.6-2.1,2.7-2.9c0.1,0.4,0.2,0.9,0.3,1.3c0.4,0.2,0.8,0.3,1.2,0.3c0.6,0.1,1.1,0.1,1.5,0&#10;&#9;&#9;&#9;c-0.4,1.6-1.8,2.9-2.3,4.5c0.4,0,0.7,0.1,1,0.2c-1.2,1.1,0.2,1-0.3,3.1c0.6,0.1,1.2,0.2,1.8,0.3c0.3-1.6,1-1.7,1.1-2.3&#10;&#9;&#9;&#9;c0.7,0.3,1.4,0.6,2.2,0.6c0.3,0,0.6,0,1-0.1c-0.2-0.6-0.4-0.9-0.8-1.1c-0.6-0.3-1.4-0.2-2-0.6c0.8-0.6,1.7-1.3,2.5-2l0.1-0.1&#10;&#9;&#9;&#9;c0.2,1.2,0.6,2.4,1,3.4c0.2-0.8,0.3-1.6,0.5-2.4c0.2-0.9,0.3-1.8,0.4-2.7c0.4-0.4,0.8-0.7,1.3-1.1c-0.2,3.6-2.1,9.2-2.5,13&#10;&#9;&#9;&#9;c-0.2-0.2-0.5-0.4-0.8-0.8c0,0.3,0,0.6-0.1,0.9c-0.2,0.9-0.6,1.7-1,2.5c-0.1,0.3-0.3,0.6-0.4,0.8c-0.1-0.1-0.1-0.2-0.2-0.3&#10;&#9;&#9;&#9;c0,0.2,0,0.5,0,0.7c-0.1,0.3-0.3,0.6-0.3,0.9l0,0.1c0.2,0.4,0.5,0.9,0.8,1.3c0.8,0.2,1.5,0.3,2.2,0.4c1.3-0.7,2-2.4,2.6-4.1&#10;&#9;&#9;&#9;c1.1-1,1.6-2.7,2.1-4.6c0.9,0,1.8,0.3,2-0.6l0-0.4c-0.6,0.2-1.3,0-1.8,0c0.7-3,1.3-6.1,4-6.3c1.4,1.3,1,3.8,1,6.1c0,0,0,0,0,0&#10;&#9;&#9;&#9;c0,0,0,0.1,0,0.1c0,1.5,0.1,2.9,0.8,3.9c1.6,0.2,2.9-0.1,4-0.7c-0.6,0.4-1.1,0.7-1.7,0.8c0.4,0.8,0.4,1.7,0.8,2.5&#10;&#9;&#9;&#9;c-1.1,2.3-2.4,4.6-3.9,6.7c0.1,0.9,0,1.8-0.2,2.7c-0.4,2-1.2,4-2,5.9c-0.8,2-1.6,3.8-1.9,5.6c-0.2,1.3-0.2,2.5,0.3,3.6&#10;&#9;&#9;&#9;c-0.2-0.6-0.2-1.1-0.1-1.5c0.3-1.8,2.4-2.8,3.3-4.6c2.5-5.2,2.7-12,6.4-16.5l0.4,0.2c1.9-0.5,3.5-1.6,3.8-3.1&#10;&#9;&#9;&#9;c0.1-0.6,0-1.2-0.4-1.9c0.1-0.5,0.2-0.9,0.4-1.3c1.4-1.3,2.3-3.1,3.2-5c-0.3,1.6-1.8,3.4-1.5,5c-0.3,0.5-0.6,1.2-0.5,1.9&#10;&#9;&#9;&#9;c2.1-1,2.3-2.7,3.1-4.1c-0.4,0.2-0.7,0.5-1.1,0.7c2.8-2.9,4.7-5.8,4.7-8.5c0.2-0.2,0.3-0.4,0.5-0.6c7.3,5.5-9.8,9.7-2.3,15.2&#10;&#9;&#9;&#9;c2.4-2.2,4.1-4,5.6-5.8c0.1,3.2-0.5,6.2-1,9.2c2.3-0.6,2.6,3.8,4.7,3.7c0.1-0.6,0.3-1.1,0.5-1.7c1.2,6.8,2.3,13.7,3.4,20.5&#10;&#9;&#9;&#9;c0.5-0.2,1.1-0.4,1.6-0.7c-0.5-4.8-1.9-10.3-2.5-16c-0.3-3-0.2-6.3-0.6-9.4c2.2-5.3,5-10.4,7.5-15.6c-0.3,3-0.2,6.7,1.4,7.3&#10;&#9;&#9;&#9;c0.6-3.9,0.1-7-0.1-10.1c1.5-3.3,2.8-6.8,3.6-10.4c0.7,0.3,1.5,0.6,2.4,0.7c0.3,0.1,0.6,0.1,0.9,0.1c0-0.3,0.1-0.5,0.2-0.7&#10;&#9;&#9;&#9;c0.8,0.4,1.6,0.8,2.4,1.2c-0.4,2-0.8,3.8-1.1,5.2c1.6-1.1,2.3-2.7,2.7-4.2c5.6,3.5,9.3,8.3,13,13.1c0.1,0.3,0.3,0.6,0.4,0.8&#10;&#9;&#9;&#9;c0.8,1.7,1.6,3.3,2.3,4.8c0.9,1.9,1.7,3.6,2.5,5.1l-0.3,1.7c0.5,0.9,1.2,1.6,1.9,2.4c-0.6,0-1,0.2-1.1,0.9&#10;&#9;&#9;&#9;c0.2,0.3,0.5,0.6,0.7,0.8c0.8,0.1,1.4,0.1,2.1,0c1,1,1.9,2,2.5,3.2c1.2,4.6,2.9,9.3,4.6,14c0.7,1.9,1.4,3.8,2.1,5.8&#10;&#9;&#9;&#9;c1.5,4.1,2.9,8.1,3.9,12.2c1,4,0.2,9.4,5.2,11.5c-1.4-9.3-6.7-16.1-6.1-26.7c-0.8-0.9-1.4-1.8-2-2.8c-0.9-1.5-1.7-3.2-2.3-5&#10;&#9;&#9;&#9;c-2-5.5-2.9-12.1-4.5-18.3c3.2-2.7,3-9.5,3.8-13.4c2.6,1.6,4.1,5.7,7,6.6c3.7-0.9,4.7-4.5,7-4.1c0.4,0.1,0.8,0.3,1.4,0.6&#10;&#9;&#9;&#9;c1.6,1.6,2.8,2.5,3.5,2.8c0.5,0.6,0.9,1.2,1.3,1.7c3.3,3.9,10.3,7.1,12.9,10.2c9.3,10.9,17.5,23.9,26,29.3&#10;&#9;&#9;&#9;c-8.8-12.2-19.2-23.3-28.5-35.1C272.5,687.4,273.1,687.9,273.8,688.4z M272.4,593.9c0.4,0.1,0.8,0.4,0.9,0.9&#10;&#9;&#9;&#9;c0.1,0.5-0.3,0.9-0.9,1.1c-0.6-0.4-1.2-0.8-1.8-1.3C270.9,594.2,271.7,593.8,272.4,593.9z M269.7,561.7c0.4-0.2,0.8-0.4,1.2-0.5&#10;&#9;&#9;&#9;c0.1,0.4,0.1,0.8-0.2,1.4c-1.7,1.1-3.7,1.3-5.8,1.2C266.5,563,268.1,562.3,269.7,561.7z M180.8,517.1c0.1-0.4,0.4-0.8,1-0.8&#10;&#9;&#9;&#9;c0.9-0.1,1.4,1,1.3,1.8c-0.1,0.2-0.2,0.4-0.2,0.6C181.8,519.7,180.6,518.2,180.8,517.1z M174.3,680.3L174.3,680.3&#10;&#9;&#9;&#9;C174.4,680.3,174.4,680.2,174.3,680.3C174.4,680.3,174.4,680.3,174.3,680.3C174.3,680.4,174.3,680.3,174.3,680.3z M103.1,592.5&#10;&#9;&#9;&#9;c-0.7-0.1-1.5-0.4-2.2-0.9C101.6,591.9,102.4,592.2,103.1,592.5z M107.7,604.7c-0.3,0.5-1.2,0.9-1.8,0.8c-0.4-0.1-0.8-0.4-0.9-0.9&#10;&#9;&#9;&#9;c0-0.2,0-0.4,0.1-0.6C106,604.3,106.9,604.5,107.7,604.7z M170.3,687.3c0.1-0.1,0.2-0.2,0.3-0.2c0,0,0,0.1,0,0.1&#10;&#9;&#9;&#9;C170.4,687.2,170.4,687.3,170.3,687.3z" style="fill: rgb(204, 204, 204); opacity: 1;"/>
		<path class="st5" d="M117.6,720.4c-1.7,0.4-3,0.8-4,1.4c2.1-5.6,3.9-11.3,4.9-16.6c0.2-1.1,0.4-2.1,0.5-3.1&#10;&#9;&#9;&#9;c-3.4,7.4-6.6,17.5-9.3,24.6c-0.4,1-0.8,2-1.1,2.9c-0.2,0.5-0.4,1-0.6,1.4c-0.6,1.4-2.9,3.2-3.2,4.7c-0.2,0.8,0.3,1.6,1.9,2.2&#10;&#9;&#9;&#9;c1.1-2.5,2.4-5.2,3.6-8c0.4-0.9,0.8-1.9,1.2-2.9c0.1-0.1,0.1-0.3,0.2-0.4c0,0,0,0,0,0c0.3,0.9,0.8,2,1.6,3.1&#10;&#9;&#9;&#9;c0.6,0.3,1.3,0.5,1.9,0.6C121.8,731.5,125.1,722.7,117.6,720.4z" style="fill: rgb(204, 204, 204); opacity: 1;"/>
		<path class="st5" d="M50,526.7c-0.4,5.2,6.4,7.8,9.5,3.5c5.4,1.8,10.8,3.3,15.9,4.2c1.1,0.2,2.2,0.3,3.3,0.5&#10;&#9;&#9;&#9;c-5.4-2.3-12.1-4.5-18.2-6.4c0-0.1,0.1-0.1,0.1-0.2c-0.5-2.3-1.4-4-2.5-4.9c-1.1-0.9-2.5-1.2-4.1-0.7c-1,0.3-2.1,0.8-3.3,1.6&#10;&#9;&#9;&#9;c-0.1,0.3-0.2,0.6-0.3,0.9c-0.2-0.1-0.3-0.1-0.5-0.2c-0.5-0.2-1-0.4-1.5-0.6c-1.5-0.6-3.3-2.8-4.9-3.1c-0.9-0.1-1.7,0.3-2.3,1.8&#10;&#9;&#9;&#9;c2.6,1.1,5.4,2.3,8.4,3.4C49.7,526.6,49.8,526.7,50,526.7z" style="fill: rgb(204, 204, 204); opacity: 1;"/>
		<path class="st5" d="M89.6,566.5c-0.3-0.1-0.7-0.2-1-0.3l-0.1,0c-0.4,0.2-0.9,0.5-1.4,0.8c-0.2,0.7-0.3,1.4-0.4,2.1&#10;&#9;&#9;&#9;c1.2,1.9,4.4,2.4,6.9,3.3c0.3-2.2-1.2-2.9,0.8-4.3c-0.3,0-0.6,0-0.9-0.1c-1-0.2-1.8-0.6-2.6-0.9c-0.3-0.1-0.6-0.3-0.9-0.4&#10;&#9;&#9;&#9;c0.1-0.1,0.2-0.1,0.3-0.2C90.1,566.5,89.9,566.5,89.6,566.5z" style="fill: rgb(204, 204, 204); opacity: 1;"/>
		<path class="st5" d="M61.4,607.6c-0.2-0.5-0.5-1-0.7-1.6c-2.4,0.4-4.7,0.7-7.1,1.1c0.4,0.1,0.9,0.2,1.3,0.3&#10;&#9;&#9;&#9;C56.9,607.8,59.1,607.8,61.4,607.6z" style="fill: rgb(204, 204, 204); opacity: 1;"/>
		<path class="st5" d="M66,561.5c2.8,0.2,5.7-0.2,8.1-1.7l-19.2-3.3c2.1,2.1,5,3.7,8.2,4.5L66,561.5z" style="fill: rgb(204, 204, 204); opacity: 1;"/>
		<path class="st5" d="M14,552.4L14,552.4C14,552.4,14,552.4,14,552.4C14,552.4,14,552.4,14,552.4z" style="fill: rgb(204, 204, 204); opacity: 1;"/>
		<path class="st5" d="M54.9,595c-0.4-0.6-0.8-1.3-1.2-1.8c-1.1-0.3-2.2-0.5-3.5-0.8c0,0,0,0,0,0c-0.2,0-0.4-0.1-0.6-0.1&#10;&#9;&#9;&#9;c-0.2,0-0.4-0.1-0.7-0.1c-0.2,0-0.4-0.1-0.6-0.1c0,0,0,0,0,0c-1.8-0.3-3.9-0.6-5.9-0.9c-1.1-0.2-2.1-0.3-3.1-0.4&#10;&#9;&#9;&#9;c-4.4-0.4-8.3-0.1-9.9,2.5c3.1,0.5,6.2,0.9,9.2,1.3c1.1,0.1,2.1,0.2,3.2,0.3c2.9,0.3,5.9,0.4,8.8,0.5c0-0.1,0-0.2,0-0.3&#10;&#9;&#9;&#9;C52,595.1,53.5,595.1,54.9,595z" style="fill: rgb(204, 204, 204); opacity: 1;"/>
		<path class="st5" d="M82.5,617.6c0.1-0.9,0.1-1.7,0.2-2.6l-0.1,0c-0.4-0.1-0.7-0.3-1-0.5c-0.3-0.2-0.5-0.4-1-0.5&#10;&#9;&#9;&#9;c-0.2,0-0.4,0-0.6,0c-4.8,0.1-9.3,0.8-13.6,1.8c1,2.6,1.8,5.2,2.6,7.6C74.3,622.5,79.7,621.6,82.5,617.6z" style="fill: rgb(204, 204, 204); opacity: 1;"/>
		<path class="st5" d="M57.4,571.3c-0.9-0.2-1.9-0.2-2.9-0.3c-1-0.1-1.9-0.1-2.9-0.3c1.4,1.9,3.2,2.8,5.3,3.2&#10;&#9;&#9;&#9;c1.6,0.3,3.3,0.2,5.1,0.1C60.8,572.3,59.2,571.6,57.4,571.3z" style="fill: rgb(204, 204, 204); opacity: 1;"/>
		<path class="st5" d="M78.1,602.5c0.6-0.2,1.1-0.5,1.7-0.7c0.1-0.9-0.3-1.3-0.9-1.4c-1.1-0.2-2.7,0.7-2,1.6&#10;&#9;&#9;&#9;c0.3-0.1,0.5-0.2,0.7-0.1C77.9,601.9,78,602.1,78.1,602.5z" style="fill: rgb(204, 204, 204); opacity: 1;"/>
		<path class="st5" d="M138.6,703.8c0.2,0.5,0.5,1.1,0.7,1.6c2.3,0.3,1.5-2.7,0.3-2.9c-0.2,0-0.4,0-0.6,0.1&#10;&#9;&#9;&#9;C139.2,703.2,139.4,703.7,138.6,703.8z" style="fill: rgb(204, 204, 204); opacity: 1;"/>
		<path class="st5" d="M54.6,699.5c0.2,0.5,0.5,1.1,0.7,1.6c0.6-0.2,1.1-0.5,1.7-0.7c-0.2-0.5-0.5-1.1-0.7-1.6&#10;&#9;&#9;&#9;C55.7,699,55.2,699.2,54.6,699.5z" style="fill: rgb(204, 204, 204); opacity: 1;"/>
		<path class="st5" d="M71.7,600.6c0-0.3-0.5-0.7-1.4-0.9c-0.4-0.1-0.9-0.1-1.5,0c0.8,1,1.5,1.4,2,1.4&#10;&#9;&#9;&#9;C71.4,601.2,71.7,601,71.7,600.6z" style="fill: rgb(204, 204, 204); opacity: 1;"/>
		<path class="st5" d="M105.4,623.2l0.1,0c1.2,0.2,2-0.2,2.5-0.8c2.9,0.2,3.6-4,0.9-4.5c-0.5,1.6-2.6,1.4-2.1,4.1&#10;&#9;&#9;&#9;C106.3,622.2,105.8,622.6,105.4,623.2z" style="fill: rgb(204, 204, 204); opacity: 1;"/>
		<path class="st5" d="M55.6,593.5c0.4,0.6,0.8,1.2,1.2,1.8c1.3,0,2.5-0.1,3.8-0.2C59.3,594.6,57.6,594,55.6,593.5z" style="fill: rgb(204, 204, 204); opacity: 1;"/>
		<path class="st5" d="M80.7,535.2" style="fill: rgb(204, 204, 204); opacity: 1;"/>
		<path class="st5" d="M16.3,661.1L16.3,661.1c0,0,0.7-0.2,1.4-0.3c0.7-0.2,1.4-0.3,1.4-0.3c0,0-0.2,0-0.6,0.1&#10;&#9;&#9;&#9;C16.9,661,16.3,661.1,16.3,661.1z" style="fill: rgb(204, 204, 204); opacity: 1;"/>
		<path class="st5" d="M193.9,804.3c1.7,2.5,3,1.7,3.2,0.7C197.3,804.1,196.5,802.9,193.9,804.3z" style="fill: rgb(204, 204, 204); opacity: 1;"/>
		<path class="st5" d="M164.3,686.3c-0.3,0.1-0.6,0.2-0.9,0.5c0.1,0.6,0.5,1.1,1.1,1.4C164.5,687.6,164.5,686.9,164.3,686.3z" style="fill: rgb(204, 204, 204); opacity: 1;"/>
		<path class="st5" d="M195.2,718.7c-0.5,0.2-1.1,0.4-1.6,0.7c0.4,2.3,0.8,4.5,1.2,6.8c0.1-0.4,0.2-0.8,0.3-1.2&#10;&#9;&#9;&#9;C195.4,722.9,195.4,720.9,195.2,718.7z" style="fill: rgb(204, 204, 204); opacity: 1;"/>
		<path class="st5" d="M141.7,724.9c2.2-2,3.8-4.8,4.7-7.8l0.5-2.8c0.3-2.7-0.2-5.4-1.8-7.7L141.7,724.9z" style="fill: rgb(204, 204, 204); opacity: 1;"/>
		<path class="st5" d="M151.3,685.7c0.4,1.9-0.3,3.5,0,5.4l1.1-6C152.1,685.3,151.7,685.5,151.3,685.7z" style="fill: rgb(204, 204, 204); opacity: 1;"/>
		<path class="st5" d="M182,724.8c-0.7,0.4-1.3,0.8-1.9,1.2c-0.3,1-0.5,2.1-0.8,3.3c0,0,0,0,0,0c0,0.2-0.1,0.4-0.1,0.6&#10;&#9;&#9;&#9;c0,0.2-0.1,0.4-0.1,0.6c0,0.2-0.1,0.4-0.1,0.6c0,0,0,0,0,0c-0.3,1.8-0.7,3.7-1,5.6c-0.2,1-0.3,2-0.4,3c-0.4,4.2-0.1,7.9,2.6,9.5&#10;&#9;&#9;&#9;c0.5-3,1-5.9,1.3-8.8c0.1-1,0.2-2,0.3-3c0.3-2.8,0.5-5.6,0.5-8.4c-0.1,0-0.2,0-0.4,0C182,727.6,182,726.2,182,724.8z" style="fill: rgb(204, 204, 204); opacity: 1;"/>
		<path class="st5" d="M211.9,742.5c-1.4-4.4-3.1-8.6-4.9-12.7c1.4,3.9,2.2,8.2,3.2,12.4c0.3,1.1,0.5,2.2,0.8,3.2&#10;&#9;&#9;&#9;c1,3.6,2.2,7,4.1,9.7c-0.6-3.2-1.4-6.4-2.3-9.4C212.6,744.7,212.3,743.6,211.9,742.5z" style="fill: rgb(204, 204, 204); opacity: 1;"/>
		<path class="st5" d="M205.7,698.5c-0.9-0.1-1.8-0.1-2.7-0.2l0,0.1c-0.1,0.4-0.3,0.7-0.5,0.9c-0.2,0.3-0.4,0.5-0.5,0.9&#10;&#9;&#9;&#9;c0,0.2,0,0.4,0,0.6c0.1,4.5,0.8,8.9,1.9,13c2.7-0.9,5.4-1.7,8-2.5C210.7,706.3,209.8,701.2,205.7,698.5z" style="fill: rgb(204, 204, 204); opacity: 1;"/>
		<path class="st5" d="M204.1,753.5c0.6,0,1.2,0.1,1.8,0.1c0-0.6,0.1-1.2,0.1-1.7c-0.6,0-1.2-0.1-1.8-0.1&#10;&#9;&#9;&#9;C204.2,752.3,204.1,752.9,204.1,753.5z" style="fill: rgb(204, 204, 204); opacity: 1;"/>
		<path class="st5" d="M157.2,722.5c-0.2,0.9-0.2,1.8-0.3,2.7c-0.1,0.9-0.1,1.9-0.3,2.7c2-1.3,2.9-3.1,3.3-5.1&#10;&#9;&#9;&#9;c0.3-1.5,0.2-3.2,0.1-4.9C158.2,719.2,157.5,720.8,157.2,722.5z" style="fill: rgb(204, 204, 204); opacity: 1;"/>
		<path class="st5" d="M187.6,701.9c-0.2,1,0.7,2.6,1.7,1.9c-0.1-0.2-0.2-0.5-0.1-0.7c0-0.2,0.2-0.4,0.6-0.5&#10;&#9;&#9;&#9;c-0.2-0.5-0.5-1.1-0.7-1.6C188.1,700.9,187.7,701.4,187.6,701.9z" style="fill: rgb(204, 204, 204); opacity: 1;"/>
		<path class="st5" d="M294.5,643.9c0,0.2,0,0.4,0.1,0.6c0.5-0.2,1.1-0.3,1.2,0.5c0.6-0.2,1.1-0.5,1.7-0.7&#10;&#9;&#9;&#9;C297.9,642,294.8,642.7,294.5,643.9z" style="fill: rgb(204, 204, 204); opacity: 1;"/>
		<path class="st5" d="M290.6,723.5c0.2,0.5,0.5,1.1,0.7,1.6c0.6-0.2,1.1-0.5,1.7-0.7c-0.2-0.5-0.5-1.1-0.7-1.6&#10;&#9;&#9;&#9;C291.7,723.1,291.2,723.3,290.6,723.5z" style="fill: rgb(204, 204, 204); opacity: 1;"/>
		<path class="st5" d="M187.8,708.8c-0.4,0-0.8,0.4-0.9,1.3c-0.1,0.4-0.1,0.8,0,1.4c1-0.8,1.4-1.4,1.5-1.9&#10;&#9;&#9;&#9;C188.5,709.1,188.2,708.8,187.8,708.8z" style="fill: rgb(204, 204, 204); opacity: 1;"/>
		<path class="st5" d="M313.7,734.7c-0.1,0.3,0.5,1.3,1.1,2c0.6,0.7,1.2,1.1,1.4,0.2c0-0.2,0-0.4,0-0.6l-0.9-0.2&#10;&#9;&#9;&#9;C314.2,734.8,313.8,734.5,313.7,734.7z" style="fill: rgb(204, 204, 204); opacity: 1;"/>
		<path class="st5" d="M305.2,701.6c-1.2-0.7-2-1.7-3.3-2.3l-0.2,0.4C301.4,701.3,304.6,703.2,305.2,701.6z" style="fill: rgb(204, 204, 204); opacity: 1;"/>
		<path class="st5" d="M300.5,696.6l0.1-0.2c-0.6-0.1-1.2-0.2-1.8-0.3c-0.2,0.3-0.4,0.5-0.4,0.7c-0.1,0.7,0.5,1.2,1.3,1.4&#10;&#9;&#9;&#9;c0.7,0.2,1.5,0,1.7-0.6l0-0.2C300.8,697.2,300.4,697.1,300.5,696.6z" style="fill: rgb(204, 204, 204); opacity: 1;"/>
		<path class="st5" d="M194.7,770.3c0.2-1,1.2-1,1.4-2l0-0.4c-0.9-0.2-1.8-0.3-2.7-0.5c-0.1,0.6-0.2,1.1-0.3,1.7&#10;&#9;&#9;&#9;C194,769.3,194,770,194.7,770.3z" style="fill: rgb(204, 204, 204); opacity: 1;"/>
		<path class="st5" d="M210.3,675.2c0.2,0.6,0.6,1,1.2,1.4l0-0.1c0.2-1.1-0.2-1.9-0.9-2.4c0.2-2.8-4.2-3.5-4.7-0.9&#10;&#9;&#9;&#9;C207.6,673.6,207.5,675.7,210.3,675.2z" style="fill: rgb(204, 204, 204); opacity: 1;"/>
		<path class="st5" d="M182.1,719.4c-0.6,1.3-1.1,2.9-1.7,4.8c0.6-0.4,1.2-0.8,1.9-1.2C182.3,721.8,182.2,720.6,182.1,719.4z" style="fill: rgb(204, 204, 204); opacity: 1;"/>
		<path d="M 119.300003 700.299988 L 119.400002 700.400024" class="st5" style="fill: rgb(204, 204, 204); opacity: 1;"/>
		<path class="st5" d="M309,730.6c-0.1,1,0.7,1.3,0.5,2.3l-0.1,0.4c1.4,0.1,3.3,0.9,3.8-0.2C310.2,733.6,310.1,728.7,309,730.6z" style="fill: rgb(204, 204, 204); opacity: 1;"/>
		<path class="st5" d="M304.1,727.1c1.4,1,2.2,2.5,4,3.3c0.1-0.2,0.2-0.4,0.2-0.6C308.7,727.7,304.3,726.1,304.1,727.1z" style="fill: rgb(204, 204, 204); opacity: 1;"/>
		<path class="st5" d="M250.5,759c0,0,0,0.2,0.1,0.5c0.4,1.6,0.6,2.2,0.6,2.2l0,0c0,0-0.2-0.7-0.4-1.4&#10;&#9;&#9;&#9;C250.6,759.7,250.5,759,250.5,759z" style="fill: rgb(204, 204, 204); opacity: 1;"/>
		<path class="st5" d="M247.2,752.8c0.2,1.1,0.6,2.1,1.3,2.9l0-0.2C248.8,754.2,248,750.8,247.2,752.8z" style="fill: rgb(204, 204, 204); opacity: 1;"/>
		<path class="st5" d="M184.4,802.7c0,0.4-0.1,0.8-0.2,1.3c-0.2,0.9-0.4,1.8-0.7,2.7c-0.2,0.9-0.5,1.8-0.7,2.7&#10;&#9;&#9;&#9;c-0.4,2.4-0.3,4.7,1.8,6.7c1.3-9,2.8-30.2,0.8-38.9C184.4,787.2,185,795.7,184.4,802.7z" style="fill: rgb(204, 204, 204); opacity: 1;"/>
		<path class="st5" d="M212.4,508.1l0,0.4c1-0.3,2.3,0.5,2.5-0.6l0-0.4C213.9,507.8,212.6,507,212.4,508.1z" style="fill: rgb(204, 204, 204); opacity: 1;"/>
		<path class="st5" d="M209.5,507c0.3-0.1,0.6-0.2,0.9-0.5c-0.1-0.6-0.5-1.1-1.1-1.4C209.3,505.7,209.3,506.4,209.5,507z" style="fill: rgb(204, 204, 204); opacity: 1;"/>
		<path class="st5" d="M220,506.2c0-0.3,0-0.6,0.1-0.9c0.2-0.9,0.6-1.7,1-2.5c0.1-0.3,0.3-0.6,0.4-0.8c0.1,0.1,0.1,0.2,0.2,0.3&#10;&#9;&#9;&#9;c0-0.2,0-0.5,0-0.7c0.1-0.3,0.3-0.6,0.3-0.9l0-0.1c-0.2-0.4-0.5-0.9-0.8-1.3c-0.8-0.2-1.5-0.3-2.2-0.4c-2,1.1-2.5,4.2-3.5,6.6&#10;&#9;&#9;&#9;C217.7,505.7,218.5,504.3,220,506.2z" style="fill: rgb(204, 204, 204); opacity: 1;"/>
		<path class="st5" d="M178.6,474.6c0.5-0.2,1.1-0.4,1.6-0.7c-0.4-2.3-0.8-4.5-1.2-6.8c-0.1,0.4-0.2,0.8-0.3,1.2&#10;&#9;&#9;&#9;C178.4,470.3,178.4,472.4,178.6,474.6z" style="fill: rgb(204, 204, 204); opacity: 1;"/>
		<path class="st5" d="M232.1,468.4c-2.2,2-3.8,4.8-4.7,7.8l-0.5,2.8c-0.3,2.7,0.2,5.4,1.8,7.7L232.1,468.4z" style="fill: rgb(204, 204, 204); opacity: 1;"/>
		<path class="st5" d="M222.5,507.6c-0.4-1.9,0.3-3.5,0-5.4l-1.1,6C221.7,508,222.1,507.8,222.5,507.6z" style="fill: rgb(204, 204, 204); opacity: 1;"/>
		<path class="st5" d="M236.4,429.3L236.4,429.3C236.4,429.3,236.4,429.3,236.4,429.3L236.4,429.3z" style="fill: rgb(204, 204, 204); opacity: 1;"/>
		<path class="st5" d="M191.8,468.5c0.7-0.4,1.3-0.8,1.9-1.2c0.3-1,0.5-2.1,0.8-3.3c0,0,0,0,0,0c0-0.2,0.1-0.4,0.1-0.6&#10;&#9;&#9;&#9;c0-0.2,0.1-0.4,0.1-0.6c0-0.2,0.1-0.4,0.1-0.6c0,0,0,0,0,0c0.3-1.8,0.7-3.7,1-5.6c0.2-1,0.3-2,0.4-3c0.4-4.2,0.1-7.9-2.6-9.5&#10;&#9;&#9;&#9;c-0.5,3-1,5.9-1.3,8.8c-0.1,1-0.2,2-0.3,3c-0.3,2.8-0.5,5.6-0.5,8.4c0.1,0,0.2,0,0.4,0C191.8,465.7,191.7,467.1,191.8,468.5z" style="fill: rgb(204, 204, 204); opacity: 1;"/>
		<path class="st5" d="M161.8,450.7c1.4,4.4,3.1,8.6,4.9,12.7c-1.4-3.9-2.2-8.2-3.2-12.4c-0.3-1.1-0.5-2.2-0.8-3.2&#10;&#9;&#9;&#9;c-1-3.6-2.2-7-4.1-9.7c0.6,3.2,1.4,6.4,2.3,9.4C161.1,448.6,161.5,449.7,161.8,450.7z" style="fill: rgb(204, 204, 204); opacity: 1;"/>
		<path class="st5" d="M168.1,494.8c0.9,0.1,1.8,0.1,2.7,0.2l0-0.1c0.1-0.4,0.3-0.7,0.5-0.9c0.2-0.3,0.4-0.5,0.5-0.9&#10;&#9;&#9;&#9;c0-0.2,0-0.4,0-0.6c-0.1-4.5-0.8-8.9-1.9-13c-2.7,0.9-5.4,1.7-8,2.5C163.1,487,163.9,492.1,168.1,494.8z" style="fill: rgb(204, 204, 204); opacity: 1;"/>
		<path class="st5" d="M169.7,439.8c-0.6,0-1.2-0.1-1.8-0.1c0,0.6-0.1,1.2-0.1,1.7c0.6,0,1.2,0.1,1.8,0.1&#10;&#9;&#9;&#9;C169.6,441,169.6,440.4,169.7,439.8z" style="fill: rgb(204, 204, 204); opacity: 1;"/>
		<path class="st5" d="M216.6,470.8c0.2-0.9,0.2-1.8,0.3-2.7c0.1-0.9,0.1-1.9,0.3-2.7c-2,1.3-2.9,3.1-3.3,5.1&#10;&#9;&#9;&#9;c-0.3,1.5-0.2,3.2-0.1,4.9C215.6,474.1,216.3,472.5,216.6,470.8z" style="fill: rgb(204, 204, 204); opacity: 1;"/>
		<path class="st5" d="M186.2,491.4c0.2-1-0.7-2.6-1.7-1.9c0.1,0.2,0.2,0.5,0.1,0.7c0,0.2-0.2,0.4-0.6,0.5c0.2,0.5,0.5,1.1,0.7,1.6&#10;&#9;&#9;&#9;C185.6,492.3,186.1,491.9,186.2,491.4z" style="fill: rgb(204, 204, 204); opacity: 1;"/>
		<path class="st5" d="M77.9,548.4c-0.6,0.2-1.1,0.5-1.7,0.7c-0.3,2.2,2.8,1.5,3,0.3c0-0.2,0-0.4-0.1-0.6&#10;&#9;&#9;&#9;C78.6,549,78,549.1,77.9,548.4z" style="fill: rgb(204, 204, 204); opacity: 1;"/>
		<path class="st5" d="M83.2,469.8c-0.2-0.5-0.5-1.1-0.7-1.6c-0.6,0.2-1.1,0.5-1.7,0.7c0.2,0.5,0.5,1.1,0.7,1.6&#10;&#9;&#9;&#9;C82.1,470.2,82.6,470,83.2,469.8z" style="fill: rgb(204, 204, 204); opacity: 1;"/>
		<path class="st5" d="M205.6,507l0,0.3c1.8-1,2,1.8,3.5,1.5c-0.2-0.6-0.2-1.2-0.2-1.9C207.7,506.1,205.7,506.2,205.6,507z" style="fill: rgb(204, 204, 204); opacity: 1;"/>
		<path class="st5" d="M185.9,484.5c0.4,0,0.8-0.4,0.9-1.3c0.1-0.4,0.1-0.8,0-1.4c-1,0.8-1.4,1.4-1.5,1.9&#10;&#9;&#9;&#9;C185.3,484.2,185.6,484.5,185.9,484.5z" style="fill: rgb(204, 204, 204); opacity: 1;"/>
		<path class="st5" d="M72,493.6c0.3-1.7-2.9-3.5-3.4-1.9c1.2,0.7,2,1.7,3.3,2.3L72,493.6z" style="fill: rgb(204, 204, 204); opacity: 1;"/>
		<path class="st5" d="M73.3,496.7l-0.1,0.2c0.6,0.1,1.2,0.2,1.8,0.3c0.2-0.3,0.4-0.5,0.4-0.7c0.1-0.7-0.5-1.2-1.3-1.4&#10;&#9;&#9;&#9;c-0.7-0.2-1.5,0-1.7,0.6l0,0.2C72.9,496.1,73.4,496.2,73.3,496.7z" style="fill: rgb(204, 204, 204); opacity: 1;"/>
		<path class="st5" d="M103.1,559.7c0.1-0.6,0.2-1.2,0.3-1.7c-1.5-1.7-1.2-0.1-3.6-0.6c-0.1,0.6-0.2,1.1-0.3,1.7&#10;&#9;&#9;&#9;C102,559.4,101.1,560.8,103.1,559.7z" style="fill: rgb(204, 204, 204); opacity: 1;"/>
		<path class="st5" d="M105.6,537.4c0.4,0.1,0.9-0.1,1-0.5c0.1-0.3-0.1-0.9-0.8-1.6c-0.6,0.5-0.9,0.9-1,1.2&#10;&#9;&#9;&#9;C104.8,537.1,105.2,537.4,105.6,537.4z" style="fill: rgb(204, 204, 204); opacity: 1;"/>
		<path class="st5" d="M163.5,518.1c-0.2-0.6-0.6-1-1.2-1.4l0,0.1c-0.2,1.1,0.2,1.9,0.9,2.4c-0.2,2.8,4.2,3.5,4.7,0.9&#10;&#9;&#9;&#9;C166.1,519.7,166.3,517.6,163.5,518.1z" style="fill: rgb(204, 204, 204); opacity: 1;"/>
		<path class="st5" d="M191.7,473.9c0.6-1.3,1.1-2.9,1.7-4.8c-0.6,0.4-1.2,0.8-1.9,1.2C191.5,471.5,191.6,472.7,191.7,473.9z" style="fill: rgb(204, 204, 204); opacity: 1;"/>
		<path d="M 254.39999389648438 492.8999938964844 L 254.39999389648438 493.1000061035156 L 254.39999389648438 493 Z" class="st5" style="fill: rgb(204, 204, 204); opacity: 1;"/>
	</g></svg>